# xmcd CD database file
#
# Track frame offsets:
#	150
#	43114
#	63882
#	86036
#	117273
#	163410
#	206011
#	240539
#
# Disc length: 3471 seconds
#
# Revision: 0
# Processed by: cddbd v1.5.2PL0 Copyright (c) Steve Scherf et al.
# Submitted via: CDex 1.70beta2
#
DISCID=6d0d8d08
DTITLE=JACQUES LOUSSIER - ORIGINAL COMPOSITIONS
DYEAR=2007
DGENRE=Jazz
TTITLE0=Concerto for Violin and Percussion Prague
TTITLE1=Concerto for Violin and Percussion L'Homme nu
TTITLE2=Concerto for Violin and Percussion Buenos Aires, Tango
TTITLE3=Concerto for Violin and Percussion Tokyo
TTITLE4=Tableaux venitiens
TTITLE5=Trumpet Concerto Allegro
TTITLE6=Trumpet Concerto Slow
TTITLE7=Trumpet Concerto AllegroFinale
EXTD=YEAR: 2007
EXTT0=
EXTT1=
EXTT2=
EXTT3=
EXTT4=
EXTT5=
EXTT6=
EXTT7=
PLAYORDER=
